<?xml version="1.0" encoding="UTF-8"?>
<!DOCTYPE svg PUBLIC "-//W3C//DTD SVG 1.1//EN" "http://www.w3.org/Graphics/SVG/1.1/DTD/svg11.dtd">
<!-- Creator: CorelDRAW X6 -->
<svg xmlns="http://www.w3.org/2000/svg" xml:space="preserve" width="407.77mm" height="407.77mm" version="1.1" shape-rendering="geometricPrecision" text-rendering="geometricPrecision" image-rendering="optimizeQuality" fill-rule="evenodd" clip-rule="evenodd" viewBox="0 0 40777 40777" xmlns:xlink="http://www.w3.org/1999/xlink">
 <defs>
    <clipPath id="id0">
     <path d="M20389 250c11122,0 20139,9016 20139,20139 0,11122 -9016,20139 -20139,20139 -11122,0 -20139,-9016 -20139,-20139 0,-11122 9016,-20139 20139,-20139z"/>
    </clipPath>
    <clipPath id="id1">
     <path d="M20389 2926c9644,0 17463,7818 17463,17463 0,9644 -7818,17463 -17463,17463 -9644,0 -17463,-7818 -17463,-17463 0,-9644 7818,-17463 17463,-17463z"/>
    </clipPath>
 </defs>
 <g id="Capa_x0020_1">
  <metadata id="CorelCorpID_0Corel-Layer"/>
  <g id="_223318888">
   <path fill="#4376CE" d="M20389 250c11122,0 20139,9016 20139,20139 0,11122 -9016,20139 -20139,20139 -11122,0 -20139,-9016 -20139,-20139 0,-11122 9016,-20139 20139,-20139z"/>
   <g clip-path="url(#id0)">
    <g>
     <path id="1" fill="#4277D0" stroke="#4277D0" stroke-width="7.62" d="M35488 5547l12 12c3749,3820 6063,9054 6063,14830 0,11694 -9480,21174 -21174,21174 -5907,0 -11249,-2420 -15089,-6321l-4 -4 30193 -29690z"/>
     <path fill="#5390F5" stroke="#5390F5" stroke-width="7.62" d="M20389 -785c5918,0 11257,2418 15100,6332l-30193 29690c-3760,-3822 -6081,-9064 -6081,-14849 0,-11694 9480,-21174 21174,-21174z"/>
     <rect fill="#5390F5" stroke="black" stroke-width="20" x="56734" y="19591" width="4710" height="2646"/>
     <rect fill="#4277D0" stroke="black" stroke-width="20" x="63349" y="20967" width="2593" height="2699"/>
    </g>
   </g>
   <path fill="none" d="M20389 250c11122,0 20139,9016 20139,20139 0,11122 -9016,20139 -20139,20139 -11122,0 -20139,-9016 -20139,-20139 0,-11122 9016,-20139 20139,-20139z"/>
   <g>
   </g>
   <g clip-path="url(#id1)">
    <g id="_223319320">
     <path fill="#CBC9BF" d="M32308 33151c-1786,-171 -7082,-1339 -13179,-4322 -1554,-756 -3249,-1538 -5052,-2215l-4 -2 -2466 2423 -2997 2945 0 0m0 0l6 1c1951,369 4089,1024 6838,2242 2265,1089 3710,1569 5879,3607 6041,10660 16176,2816 10976,-4680m-18236 -6538l-5463 5368 0 0 2997 -2945 2466 -2423zm0 0c-3251,-1220 -6851,-2099 -10598,-1867 -9562,7212 -2532,6371 3617,6981 517,78 1018,160 1518,255l5463 -5368z"/>
     <path fill="blue" d="M8311 7776c3508,876 7385,2124 18265,7313 6098,2727 8247,3971 11194,3599 5448,2200 1750,4023 -429,5909 -5959,139 -11553,-1550 -16952,-4209 -4852,-2390 -10504,-3712 -17034,-3864 -4437,-3762 -7419,-12158 -667,-11444 993,-1253 4631,3949 5624,2696z"/>
     <path fill="#CBC9BF" d="M34635 6406l1 1 1247 1116 -367 4134c-1629,-635 -3030,-1239 -4323,-1866l-2 -1 3444 -3384z"/>
     <path fill="#F8F8F0" d="M20389 2926l5561 -2998 5516 3639 3170 2839 -3444 3384c-3574,-1733 -6326,-3641 -10803,-6865z"/>
     <path fill="#F8F8F0" d="M14072 26613c-3251,-1220 -6851,-2099 -10598,-1867 -9562,7212 -2532,6371 3617,6981 517,78 1018,160 1518,255l5463 -5368z"/>
     <polygon fill="blue" points="14072,26613 8609,31981 8609,31981 11606,29036 "/>
     <polygon fill="blue" points="11606,29036 8609,31981 8609,31981 8609,31981 11606,29036 14072,26613 "/>
     <polygon fill="blue" points="11606,29036 8609,31981 8609,31981 8609,31981 11606,29036 14072,26613 "/>
     <polygon fill="blue" points="11606,29036 8609,31981 8609,31981 8609,31981 11606,29036 14072,26613 "/>
     <polyline fill="none" points="14076,26614 14072,26613 11606,29036 8609,31981 8609,31981 8609,31981 11606,29036 14072,26613 "/>
     <path fill="none" d="M32308 33151c-1786,-171 -7082,-1339 -13179,-4322 -1554,-756 -3249,-1538 -5052,-2215 1803,677 3498,1459 5052,2215"/>
     <path fill="#CBC9BF" d="M26053 14840l2 1c172,82 345,164 521,248 6098,2727 8247,3971 11194,3599 5448,2200 1750,4023 -429,5909 -5954,139 -11542,-1547 -16937,-4202l-3 -2 5652 -5554z"/>
     <path fill="#F8F8F0" d="M8311 7776c3451,862 7260,2084 17742,7064l-5652 5554 -12 -6c-4852,-2390 -10504,-3712 -17034,-3864 -4437,-3762 -7419,-12158 -667,-11444 993,-1253 4631,3949 5624,2696z"/>
     <path fill="#F8F8F0" stroke="#F8F8F0" stroke-width="20" d="M7939 32642c-1066,-157 -1990,-245 -2547,-195 -2161,192 908,-1738 908,-1738l1505 -717 1850 962 -1716 1689z"/>
     <path fill="#CBC9BF" stroke="#CBC9BF" stroke-width="20" d="M17214 35037c-3133,-1249 -6203,-1941 -9272,-2394l-3 0 1716 -1689 0 0 5 2 2 1 260 135 7292 3945z"/>
    </g>
   </g>
   <path fill="none" d="M20389 2926c9644,0 17463,7818 17463,17463 0,9644 -7818,17463 -17463,17463 -9644,0 -17463,-7818 -17463,-17463 0,-9644 7818,-17463 17463,-17463z"/>
  </g>
 </g>
</svg>